# xmcd
#
# Track frame offsets:
#	150
#	15864
#	32593
#	50891
#	68089
#	86623
#	99858
#	115775
#	127272
#	140078
#	154984
#	168393
#
# Disc length: 2429 seconds
#
# Revision: 0
# Processed by: cddbd v1.5.2PL0 Copyright (c) Steve Scherf et al.
# Submitted via: audiograbber 1.83.01
#
DISCID=9d097b0c
DTITLE=Tomislav Goluban and Nebojsa Buhin - For a Friend and Brother
DYEAR=2015
DGENRE=Instrumental
TTITLE0=DON'T YOU
TTITLE1=ST MARTIN
TTITLE2=THUNDER NIGHT
TTITLE3=WRONG PATCH
TTITLE4=DROP OF DUST
TTITLE5=ON THE WAY
TTITLE6=SEEDS AND PLANTS
TTITLE7=WHITE STONE
TTITLE8=HOOK WALK
TTITLE9=SLEEPY THING
TTITLE10=PLAY THE BLUES
TTITLE11=ROLLIN' TEAR
EXTD=
EXTT0=
EXTT1=
EXTT2=
EXTT3=
EXTT4=
EXTT5=
EXTT6=
EXTT7=
EXTT8=
EXTT9=
EXTT10=
EXTT11=
PLAYORDER=
